<svg width="10" height="10" viewBox="0 0 10 10" fill="none" xmlns="http://www.w3.org/2000/svg">
<path d="M6.56479 0.833344C8.16257 0.833344 9.16667 1.83012 9.16667 3.43888V4.50895C9.16667 4.59318 9.13297 4.6739 9.07307 4.73311C9.01317 4.79232 8.93207 4.82509 8.84785 4.82411V4.81678C8.67177 4.81678 8.52903 4.67404 8.52903 4.49796V3.43888C8.52903 2.16726 7.83275 1.47099 6.56479 1.47099H3.43888C2.17092 1.47099 1.47098 2.17093 1.47098 3.43888V6.5648C1.47098 7.82909 2.17092 8.52903 3.43888 8.52903H6.56479C7.83275 8.52903 8.52903 7.82909 8.52903 6.5648C8.52903 6.38872 8.67177 6.24598 8.84785 6.24598C9.02393 6.24598 9.16667 6.38872 9.16667 6.5648C9.16667 8.1699 8.16989 9.16668 6.56479 9.16668H3.43888C1.83011 9.16668 0.833336 8.1699 0.833336 6.5648V3.43888C0.833336 1.83012 1.83011 0.833344 3.43888 0.833344H6.56479ZM5.02932 5.68529C5.11423 5.68718 5.19478 5.72325 5.25273 5.78534C5.31068 5.84742 5.34112 5.93027 5.33715 6.01511V6.41822L5.33147 6.46827C5.31871 6.53389 5.28554 6.5943 5.23605 6.64049C5.17418 6.69823 5.0919 6.72901 5.00733 6.72604C4.8321 6.71812 4.69534 6.57159 4.6995 6.39623V5.99312C4.70237 5.90855 4.73874 5.82858 4.80061 5.77084C4.86247 5.7131 4.94475 5.68233 5.02932 5.68529ZM5.01466 3.27031C5.05014 3.2703 5.08499 3.27627 5.11787 3.28766C5.24907 3.32717 5.34448 3.44884 5.34448 3.5928L5.34417 4.58918L6.4292 4.58957C6.46574 4.58915 6.5017 4.59507 6.53558 4.60675C6.58497 4.62182 6.63075 4.64914 6.66802 4.68684C6.72723 4.74674 6.76 4.82784 6.75904 4.91206C6.75904 5.08532 6.62074 5.2269 6.44753 5.23088H3.60745C3.57762 5.2302 3.5488 5.22549 3.52153 5.21727C3.38215 5.18256 3.27929 5.05756 3.27761 4.90839C3.27665 4.82418 3.30943 4.74307 3.36864 4.68317C3.42785 4.62327 3.50857 4.58957 3.59279 4.58957H4.69217V3.58913C4.69612 3.41329 4.83878 3.27224 5.01466 3.27031Z" fill="#4F4F4F"/>
</svg>
